<svg width="32" height="32" viewBox="0 0 32 32" fill="none" xmlns="http://www.w3.org/2000/svg">
  <!-- Background circle -->
  <circle cx="16" cy="16" r="15" fill="#0F172A" stroke="#1E293B" stroke-width="2"/>

  <!-- Aurora Borealis - Northern Lights -->
  <!-- Green wave -->
  <path d="M4 20 Q8 16, 12 18 Q16 20, 20 16 Q24 12, 28 16" stroke="#10B981" stroke-width="2" fill="none" opacity="0.8"/>

  <!-- Blue-cyan wave -->
  <path d="M4 18 Q8 14, 12 16 Q16 18, 20 14 Q24 10, 28 14" stroke="#06B6D4" stroke-width="2" fill="none" opacity="0.7"/>

  <!-- Purple wave -->
  <path d="M4 22 Q8 18, 12 20 Q16 22, 20 18 Q24 14, 28 18" stroke="#8B5CF6" stroke-width="2" fill="none" opacity="0.6"/>

  <!-- Stars -->
  <circle cx="8" cy="8" r="1" fill="#F8FAFC"/>
  <circle cx="16" cy="6" r="1" fill="#F8FAFC"/>
  <circle cx="24" cy="8" r="1" fill="#F8FAFC"/>
  <circle cx="12" cy="12" r="0.5" fill="#F8FAFC" opacity="0.7"/>
  <circle cx="22" cy="10" r="0.5" fill="#F8FAFC" opacity="0.7"/>
</svg>